<svg xmlns="http://www.w3.org/2000/svg" xmlns:xlink="http://www.w3.org/1999/xlink" width="1932" height="960" viewBox="0 0 1932 960"><defs><linearGradient id="a" x1="-.171" y1="-.439" x2=".956" y2="1.461" gradientUnits="objectBoundingBox"><stop offset="0" stop-color="#10105d"/><stop offset=".315" stop-color="#4974d9"/><stop offset=".492" stop-color="#53a0fd"/><stop offset=".713" stop-color="#5ad5d6"/><stop offset="1" stop-color="#eaffb3"/></linearGradient><linearGradient id="b" x1="1.095" y1="1.197" x2="-.227" y2="-.217" gradientUnits="objectBoundingBox"><stop offset="0" stop-color="#1b3bd8"/><stop offset=".315" stop-color="#176ce0"/><stop offset=".492" stop-color="#0b92e7"/><stop offset=".713" stop-color="#0bb6eb"/><stop offset="1" stop-color="#00e0f2"/></linearGradient><clipPath id="d"><rect width="1932" height="960" rx="8" fill="url(#a)"/></clipPath><linearGradient id="c" x1="1.095" y1="1.197" x2="-.227" y2="-.217" xlink:href="#b"/><linearGradient id="e" x1="1" y1=".387" x2="-.136" y2=".323" xlink:href="#b"/><linearGradient id="f" x1="1.096" y1=".948" x2="-.251" y2=".077" xlink:href="#b"/><linearGradient id="g" x1="-.113" y1="-.274" x2="1" y2="1.069" xlink:href="#b"/><linearGradient id="h" x1=".199" y1="-.109" x2="1.231" y2="1.387" xlink:href="#b"/><linearGradient id="i" x1="1.084" y1=".5" x2=".005" y2=".5" gradientUnits="objectBoundingBox"><stop offset="0" stop-color="#54aaf6"/><stop offset=".243" stop-color="#529efb"/><stop offset=".582" stop-color="#4976db"/><stop offset=".924" stop-color="#3969d3"/><stop offset="1" stop-color="#456dd0"/></linearGradient></defs><rect width="1932" height="960" rx="8" fill="url(#a)"/><rect width="1932" height="960" rx="8" fill="url(#c)"/><g clip-path="url(#d)"><path d="M434 217c0 119.674-97.326 217-217 217S0 337.035 0 217C0 97.326 97.326 0 217 0c120.035 0 217 97.326 217 217z" transform="translate(1566 743)" opacity=".15" fill="url(#e)"/><path d="M399 199.5C399 309.523 309.523 399 199.5 399S0 309.855 0 199.5C0 89.477 89.477 0 199.5 0 309.855 0 399 89.477 399 199.5z" transform="translate(-98 -130)" opacity=".1" fill="url(#f)"/><path d="M61 30.5A30.5 30.5 0 1 1 30.5 0 30.531 30.531 0 0 1 61 30.5z" transform="translate(102 678)" opacity=".091" fill="url(#g)"/><g opacity=".228"><path d="M107 53.5A53.5 53.5 0 1 1 53.5 0 53.554 53.554 0 0 1 107 53.5z" fill="url(#h)" transform="translate(1729 139)"/><path d="M1836 192.5a53.5 53.5 0 1 1-53.5-53.5 53.554 53.554 0 0 1 53.5 53.5z" fill="none"/></g><path d="M-92 46a46.047 46.047 0 0 0 46 46A46 46 0 0 0 0 46 46.047 46.047 0 0 0-46 0a46 46 0 0 0-46 46z" transform="translate(1005 170)" fill="url(#i)" opacity=".258"/></g></svg>